<svg xmlns="http://www.w3.org/2000/svg" width="18" height="18" viewBox="0 0 18 18">
  <g transform="translate(1.5, 0.5) scale(0.17)">
    <path fill="#000" d="M37.197 72.421a7.053 7.053 0 0 1 7.054-7.053c1.946 0 3.729.777 5.016 2.073a7.067 7.067 0 0 1 2.057 4.98v11.296c0 3.896-3.177 7.054-7.073 7.054a7.053 7.053 0 0 1-7.054-7.054V72.421Zm7.054 27.662c8.338 0 15.098-6.776 15.098-15.115V60.525c-9.645-3.546-20.552-3.546-30.197 0v24.443c0 8.339 6.76 15.115 15.099 15.115Z"/>
    <path fill="#000" d="M39.953 108.275c-11.005-2.015-19.396-11.698-19.396-23.307V64.821C8.152 72.827.444 86.661.444 101.681v16.864h39.51v-10.27Z"/>
    <path fill="#000" d="M75.256 70.712a43.876 43.876 0 0 0-7.312-5.89v20.146c0 11.61-8.39 21.292-19.396 23.307v10.27h39.51v-16.864c0-11.697-4.553-22.697-12.802-30.969Z"/>
    <path fill="#000" d="M48.548 49.499v-3.724c0-7.568 6.135-13.703 13.703-13.703a22.31 22.31 0 0 0 15.781-6.49c4.219-4.186 6.536-9.807 6.536-15.791V.07h-8.599v9.72a13.585 13.585 0 0 1-4.016 9.677 13.674 13.674 0 0 1-9.702 4.01c-12.303 0-22.298 10.006-22.298 22.297v3.724c2.866-.28 5.73-.28 8.595 0Z"/>
  </g>
</svg>
